# xmcd
#
# Track frame offsets:
#	150
#	18887
#	32666
#	47540
#	63018
#	72362
#	88455
#	102867
#	114770
#	133957
#	150415
#	163714
#	184654
#	206721
#	234258
#
# Disc length: 3468 seconds
#
# Revision: 0
# Processed by: cddbd v1.5.2PL0 Copyright (c) Steve Scherf et al.
# Submitted via: EasyCDDAExtractor 10.0.3.1
#
DISCID=bd0d8a0f
DTITLE=Various Artist - The Heavy Metal Soundtrack 2007 part 1
DYEAR=2007
DGENRE=Metal
TTITLE0=Killswitch Engage - My Curse
TTITLE1=Lacuna Coil - Closer
TTITLE2=Children Of Bodom - Silent Night, Bodom Night
TTITLE3=As I Lay Dying - Losing Sight
TTITLE4=Converge - Bare My Teeth
TTITLE5=Gallows - Come Friendly Bombs
TTITLE6=Cancer Bats - French Immersion
TTITLE7=Drop Dead, Gorgeous - Dressed For Friends Requests
TTITLE8=Underoath - You're Ever So Inviting
TTITLE9=Sikth - Summer Rain
TTITLE10=I Am Ghost - Our Friend Lazarus Sleeps
TTITLE11=Trail Of Tears - My Comfort
TTITLE12=The Cedar Falls - Our Angels Wait
TTITLE13=12 Guage Alliance - Breaking Hearts Beating
TTITLE14=Vallenbrosa - The Hessian
EXTD=
EXTT0=
EXTT1=
EXTT2=
EXTT3=
EXTT4=
EXTT5=
EXTT6=
EXTT7=
EXTT8=
EXTT9=
EXTT10=
EXTT11=
EXTT12=
EXTT13=
EXTT14=
PLAYORDER=
